<svg width="180" height="57" viewBox="0 0 180 57" fill="none" xmlns="http://www.w3.org/2000/svg">
<g clip-path="url(#clip0)">
<path d="M88.0641 56.0411C87.5543 56.2513 87.0054 56.3501 86.4543 56.331C84.7285 56.331 83.4353 55.2429 83.4353 53.2406C83.4109 52.8147 83.4765 52.3884 83.6279 51.9896C83.7793 51.5907 84.013 51.2282 84.3138 50.9257C84.6146 50.6232 84.9758 50.3875 85.3738 50.2339C85.7718 50.0803 86.1977 50.0123 86.6237 50.0343C87.1214 50.0115 87.6175 50.1046 88.073 50.3063L87.8857 50.9485C87.4981 50.7726 87.0761 50.6857 86.6505 50.6943C85.219 50.6943 84.2692 51.6085 84.2692 53.2139C84.2692 54.7078 85.1298 55.671 86.6148 55.671C87.0574 55.6764 87.4962 55.5898 87.9036 55.4168L88.0641 56.0411Z" fill="#3A3537"/>
<path d="M91.7744 50.2125C92.2735 50.1249 92.7795 50.0831 93.2862 50.0877C93.9228 50.0189 94.5616 50.1977 95.0699 50.5871C95.2278 50.735 95.352 50.915 95.4344 51.1151C95.5167 51.3151 95.5551 51.5304 95.5471 51.7466C95.5514 52.096 95.4414 52.4373 95.2336 52.7183C95.0259 52.9993 94.7319 53.2046 94.3965 53.3029V53.3297C94.6405 53.4393 94.8512 53.6111 95.0078 53.8279C95.1643 54.0447 95.2611 54.2989 95.2884 54.5649C95.3971 55.1365 95.5552 55.6975 95.7611 56.2416H94.9406C94.7595 55.7695 94.6236 55.2813 94.5348 54.7834C94.352 53.9406 94.0264 53.6195 93.3085 53.5928H92.5682V56.2416H91.7744V50.2125ZM92.5637 52.9952H93.3664C94.2137 52.9952 94.7444 52.5493 94.7444 51.8358C94.7444 51.0465 94.1736 50.7031 93.3397 50.6942C93.0791 50.6868 92.8186 50.7107 92.5637 50.7655V52.9952Z" fill="#3A3537"/>
<path d="M102.522 53.3793H100.158V55.5778H102.803V56.2422H99.3688V50.1328H102.669V50.7928H100.158V52.7237H102.522V53.3793Z" fill="#3A3537"/>
<path d="M107.534 54.329L106.901 56.251H106.089L108.167 50.1416H109.117L111.204 56.251H110.361L109.701 54.329H107.534ZM109.541 53.7136L108.939 51.9521C108.805 51.5552 108.716 51.194 108.622 50.8373C108.533 51.2029 108.435 51.5731 108.314 51.9432L107.717 53.727L109.541 53.7136Z" fill="#3A3537"/>
<path d="M115.275 50.8017H113.42V50.1328H117.942V50.8017H116.074V56.2422H115.275V50.8017Z" fill="#3A3537"/>
<path d="M122.143 50.1328V56.2422H121.34V50.1328H122.143Z" fill="#3A3537"/>
<path d="M126.228 56.2422V50.1328H127.088L129.046 53.2232C129.453 53.8609 129.819 54.5237 130.143 55.2076C130.072 54.3915 130.049 53.6513 130.049 52.697V50.1417H130.794V56.2511H129.996L128.056 53.1518C127.635 52.4942 127.254 51.8122 126.914 51.1094H126.888C126.932 51.8809 126.95 52.6167 126.95 53.629V56.2422H126.228Z" fill="#3A3537"/>
<path d="M139.561 55.9714C138.958 56.1858 138.324 56.2988 137.684 56.3059C137.268 56.3442 136.848 56.2912 136.455 56.1504C136.062 56.0097 135.704 55.7847 135.406 55.4912C135.109 55.1977 134.879 54.8427 134.734 54.4512C134.588 54.0596 134.529 53.6409 134.562 53.2244C134.562 51.4005 135.82 50.0716 137.867 50.0716C138.389 50.0577 138.909 50.1534 139.392 50.3526L139.2 50.9947C138.778 50.8116 138.322 50.7218 137.862 50.7316C137.533 50.7061 137.203 50.7522 136.893 50.8667C136.584 50.9812 136.303 51.1615 136.07 51.395C135.837 51.6285 135.657 51.9098 135.543 52.2195C135.429 52.5291 135.383 52.8598 135.41 53.1888C135.41 54.7362 136.342 55.6548 137.764 55.6548C138.123 55.673 138.481 55.6169 138.817 55.4898V53.6704H137.572V53.0327H139.588L139.561 55.9714Z" fill="#3A3537"/>
<path d="M149.122 56.2422L147.561 50.1328H148.395L149.122 53.2232C149.305 53.9857 149.466 54.7438 149.568 55.3369C149.666 54.726 149.858 53.9991 150.068 53.2143L150.879 50.1328H151.704L152.449 53.2321C152.623 53.959 152.783 54.6814 152.895 55.328C153.02 54.6547 153.194 53.9902 153.381 53.2143L154.188 50.1328H154.995L153.265 56.2422H152.467L151.695 53.0582C151.527 52.4014 151.394 51.736 151.298 51.0648C151.176 51.7371 151.018 52.4025 150.826 53.0582L149.956 56.2422H149.122Z" fill="#EA1B3D"/>
<path d="M163.731 53.1245C163.731 55.2249 162.456 56.3398 160.895 56.3398C159.334 56.3398 158.152 55.0911 158.152 53.2405C158.152 51.3006 159.357 50.0342 160.989 50.0342C162.621 50.0342 163.731 51.3096 163.731 53.1245ZM158.991 53.2227C158.991 54.5293 159.7 55.6976 160.94 55.6976C162.179 55.6976 162.897 54.5471 162.897 53.1602C162.897 51.9428 162.264 50.6763 160.953 50.6763C159.642 50.6763 158.991 51.8804 158.991 53.2227Z" fill="#EA1B3D"/>
<path d="M168.476 56.2422L166.924 50.1328H167.758L168.485 53.2232C168.663 53.9857 168.828 54.7438 168.931 55.3369C169.033 54.726 169.221 53.9991 169.43 53.2143L170.246 50.1328H171.071L171.816 53.2321C171.986 53.959 172.151 54.6814 172.24 55.328C172.369 54.6547 172.539 53.9902 172.73 53.2143L173.537 50.1328H174.345L172.614 56.2422H171.789L171.018 53.0582C170.848 52.4015 170.714 51.7361 170.617 51.0648C170.498 51.7375 170.342 52.403 170.148 53.0582L169.279 56.2422H168.476Z" fill="#EA1B3D"/>
<path d="M177.685 55.7784C177.68 55.7058 177.691 55.633 177.716 55.5647C177.741 55.4964 177.78 55.4339 177.83 55.3812C177.88 55.3285 177.941 55.2867 178.008 55.2584C178.075 55.23 178.147 55.2158 178.22 55.2165C178.369 55.2165 178.512 55.2757 178.617 55.3811C178.722 55.4865 178.782 55.6294 178.782 55.7784C178.782 55.9274 178.722 56.0704 178.617 56.1757C178.512 56.2811 178.369 56.3403 178.22 56.3403C178.147 56.341 178.075 56.3268 178.008 56.2985C177.941 56.2701 177.88 56.2283 177.83 56.1756C177.78 56.1229 177.741 56.0605 177.716 55.9921C177.691 55.9238 177.68 55.8511 177.685 55.7784ZM177.912 54.4852L177.783 50.1328H178.675L178.55 54.4852H177.912Z" fill="#EA1B3D"/>
<path d="M4.78493 2.79297H0.316617C0.141754 2.79297 0 2.93472 0 3.10959V36.069C0 36.2438 0.141754 36.3856 0.316617 36.3856H4.78493C4.95979 36.3856 5.10155 36.2438 5.10155 36.069V3.10959C5.10155 2.93472 4.95979 2.79297 4.78493 2.79297Z" fill="#3A3537"/>
<path d="M25.967 15.2216C25.2001 14.5067 24.2872 13.9665 23.2914 13.6385C22.2743 13.3023 21.2097 13.1321 20.1386 13.1346C18.5106 13.103 16.9021 13.4932 15.4696 14.2673C14.5275 14.7715 13.7166 15.4893 13.1016 16.3632V14.0086C13.1016 13.9247 13.0683 13.8441 13.0089 13.7847C12.9495 13.7254 12.869 13.692 12.785 13.692H8.5932C8.55182 13.692 8.51087 13.7002 8.4727 13.7162C8.43453 13.7322 8.39992 13.7556 8.37088 13.785C8.34183 13.8145 8.31893 13.8494 8.30351 13.8878C8.28809 13.9262 8.28045 13.9673 8.28104 14.0086V36.0737C8.28045 36.1151 8.28809 36.1562 8.30351 36.1945C8.31893 36.2329 8.34183 36.2679 8.37088 36.2973C8.39992 36.3268 8.43453 36.3502 8.4727 36.3662C8.51087 36.3821 8.55182 36.3903 8.5932 36.3903H12.785C12.869 36.3903 12.9495 36.357 13.0089 36.2976C13.0683 36.2382 13.1016 36.1577 13.1016 36.0737V24.7156C13.0784 23.6299 13.229 22.5475 13.5476 21.5093C13.7978 20.6994 14.219 19.9527 14.7828 19.3198C15.2862 18.7652 15.9145 18.3387 16.6156 18.0756C17.9292 17.5819 19.37 17.5411 20.7094 17.9597C21.2663 18.1419 21.7752 18.4467 22.1988 18.8515C22.6613 19.3218 23.0172 19.886 23.2423 20.506C23.5249 21.3152 23.6593 22.1687 23.6392 23.0255V36.0737C23.6392 36.1577 23.6726 36.2382 23.7319 36.2976C23.7913 36.357 23.8718 36.3903 23.9558 36.3903H28.1432C28.2272 36.3903 28.3077 36.357 28.3671 36.2976C28.4264 36.2382 28.4598 36.1577 28.4598 36.0737V21.875C28.4873 20.5403 28.2587 19.2128 27.7864 17.9641C27.3864 16.9286 26.7655 15.9927 25.967 15.2216Z" fill="#3A3537"/>
<path d="M44.5092 15.8141C45.0973 15.1814 45.7323 14.5941 46.4089 14.0571C46.6141 13.9055 46.3331 13.6915 46.1592 13.6915H38.333V8.93328C38.3287 8.25368 38.3674 7.5745 38.4489 6.89979C38.5027 6.39364 38.6622 5.90444 38.9171 5.46387C39.1476 5.08158 39.4815 4.77236 39.8804 4.57199C40.423 4.33836 41.0114 4.23013 41.6017 4.25537C41.9899 4.25399 42.3777 4.28382 42.7611 4.34456C43.1376 4.41263 43.5064 4.51717 43.8626 4.65672C43.9077 4.67356 43.956 4.67991 44.0039 4.67528C44.0519 4.67064 44.0981 4.65514 44.1391 4.62996C44.1805 4.60559 44.2157 4.57198 44.242 4.53176C44.2683 4.49154 44.285 4.44579 44.2907 4.39807L44.7367 0.674475C44.7477 0.598643 44.7301 0.521416 44.6872 0.457908C44.6443 0.3944 44.5792 0.349182 44.5048 0.331102C43.945 0.177985 43.3714 0.0808877 42.7924 0.0412411C42.2661 0.0100254 41.7667 -0.0078125 41.3074 -0.0078125C38.4534 -0.0078125 36.402 0.763663 35.2158 2.27986C34.0296 3.79605 33.4321 6.05697 33.4321 9.0626V13.6915H29.0351C28.9512 13.6915 28.8706 13.7248 28.8112 13.7842C28.7519 13.8436 28.7185 13.9241 28.7185 14.0081V17.638C28.7185 17.722 28.7519 17.8025 28.8112 17.8619C28.8706 17.9213 28.9512 17.9546 29.0351 17.9546H33.4678V36.0732C33.4672 36.1145 33.4748 36.1556 33.4902 36.194C33.5057 36.2324 33.5286 36.2673 33.5576 36.2968C33.5866 36.3262 33.6213 36.3496 33.6594 36.3656C33.6976 36.3816 33.7385 36.3898 33.7799 36.3898H37.9718C38.0557 36.3898 38.1363 36.3564 38.1956 36.297C38.255 36.2377 38.2884 36.1571 38.2884 36.0732V17.9546H42.6541C42.8637 17.9546 42.9707 17.9546 43.1001 17.754C43.5247 17.0758 43.9955 16.4276 44.5092 15.8141Z" fill="#3A3537"/>
<path d="M90.2716 21.0361C89.6092 20.2818 88.8123 19.6573 87.9215 19.1944C87.3336 18.893 86.7083 18.6711 86.0619 18.5344C87.3044 18.0024 88.4144 17.2031 89.3128 16.1932C90.4532 14.8454 91.0467 13.1189 90.9761 11.3548C91.0048 10.0453 90.7316 8.74682 90.1779 7.55984C89.6669 6.50927 88.9171 5.59293 87.9884 4.8842C87.0044 4.16295 85.8943 3.63207 84.7152 3.31896C83.3966 2.96369 82.0361 2.78818 80.6705 2.79721H69.1965C69.1551 2.7972 69.1141 2.80542 69.076 2.82139C69.0378 2.83735 69.0032 2.86075 68.9741 2.89021C68.9451 2.91967 68.9222 2.95461 68.9068 2.993C68.8914 3.03138 68.8837 3.07246 68.8843 3.11382V36.0732C68.8837 36.1146 68.8914 36.1556 68.9068 36.194C68.9222 36.2324 68.9451 36.2674 68.9741 36.2968C69.0032 36.3263 69.0378 36.3497 69.076 36.3656C69.1141 36.3816 69.1551 36.3898 69.1965 36.3898H80.5099C82.0712 36.4033 83.6266 36.1961 85.1299 35.7744C86.4861 35.3947 87.7647 34.7788 88.907 33.955C89.9794 33.1711 90.8618 32.1561 91.489 30.985C92.1356 29.7237 92.4604 28.3219 92.4344 26.9047C92.4528 24.7527 91.689 22.6672 90.2849 21.0361H90.2716ZM85.1299 13.9992C84.8387 14.5658 84.4168 15.055 83.8991 15.4262C83.3464 15.8185 82.7198 16.0946 82.0574 16.2378C81.3001 16.4037 80.527 16.4859 79.7519 16.4831H73.9814V7.34133H80.6928C82.3918 7.34133 83.6404 7.78727 84.4119 8.67915C85.1896 9.55746 85.611 10.6946 85.5937 11.8676C85.6148 12.6053 85.4556 13.337 85.1299 13.9992ZM73.9814 21.0272H80.2736C82.3651 21.0272 84.0373 21.4999 85.2503 22.4275C86.4632 23.355 87.034 24.7062 87.034 26.5792C87.0839 27.5203 86.8443 28.4541 86.3473 29.2548C85.8999 29.9096 85.3137 30.4577 84.6304 30.8602C83.9529 31.2601 83.2077 31.5321 82.4319 31.6629C81.7045 31.7912 80.9677 31.8598 80.229 31.868H73.9814V21.0272Z" fill="#3A3537"/>
<path d="M113.768 16.9545C112.84 15.7926 111.668 14.8488 110.334 14.1897C108.74 13.4431 106.993 13.0811 105.233 13.1328C103.626 13.1119 102.032 13.4153 100.546 14.0247C99.1535 14.6045 97.8918 15.4583 96.8358 16.5353C95.7859 17.6263 94.9576 18.9106 94.3965 20.3169C93.7957 21.8121 93.4928 23.4102 93.5046 25.0215C93.4932 26.6226 93.7681 28.2129 94.3162 29.7173C94.8299 31.1219 95.6199 32.4093 96.6396 33.5033C97.6803 34.602 98.9417 35.4683 100.341 36.0451C101.884 36.6615 103.535 36.9646 105.197 36.937C109.469 36.937 112.841 35.3762 115.222 32.2993C115.248 32.2672 115.267 32.2299 115.278 32.19C115.289 32.15 115.291 32.1082 115.284 32.0674C115.28 32.026 115.267 31.9859 115.246 31.9499C115.225 31.9138 115.197 31.8824 115.164 31.8578L111.998 29.4363C111.965 29.4102 111.928 29.3907 111.888 29.379C111.848 29.3674 111.806 29.3637 111.765 29.3682C111.723 29.3728 111.683 29.3855 111.646 29.4056C111.61 29.4257 111.578 29.4528 111.552 29.4854C110.827 30.3996 109.956 31.1876 108.974 31.8176C108.002 32.4053 106.882 32.7024 105.746 32.6738C104.835 32.6743 103.931 32.5236 103.07 32.2279C102.244 31.9491 101.474 31.5264 100.796 30.9793C100.147 30.4479 99.6112 29.7912 99.2216 29.0484C98.8695 28.3778 98.67 27.6377 98.6374 26.8811H115.989C116.072 26.8811 116.151 26.8482 116.21 26.7897C116.268 26.7311 116.301 26.6517 116.301 26.5689V25.084C116.302 23.6306 116.102 22.184 115.708 20.7851C115.322 19.392 114.663 18.0898 113.768 16.9545ZM105.139 17.115C106.043 17.0906 106.942 17.2421 107.788 17.561C108.498 17.8489 109.135 18.2888 109.657 18.8497C110.158 19.4032 110.539 20.0546 110.776 20.7628C111.007 21.4566 111.145 22.1778 111.186 22.9078H98.624C98.6681 22.2803 98.8189 21.665 99.0699 21.0883C99.3875 20.3529 99.8329 19.6795 100.385 19.0995C100.977 18.4902 101.679 17.9997 102.455 17.6546C103.301 17.2852 104.216 17.1012 105.139 17.115Z" fill="#3A3537"/>
<path d="M137.068 32.0661V20.8017C137.07 19.8115 136.881 18.8304 136.511 17.912C136.124 16.971 135.531 16.1285 134.776 15.4459C133.91 14.6846 132.898 14.108 131.802 13.7514C130.423 13.3122 128.981 13.1028 127.534 13.1315C125.911 13.138 124.301 13.4184 122.772 13.961C121.216 14.5029 119.788 15.3573 118.575 16.4716C118.546 16.5007 118.522 16.5353 118.506 16.5736C118.49 16.6119 118.482 16.653 118.482 16.6946C118.482 16.7361 118.49 16.7772 118.506 16.8155C118.522 16.8538 118.546 16.8885 118.575 16.9175L121.068 19.5441C121.121 19.6003 121.193 19.6346 121.269 19.6404C121.346 19.6462 121.422 19.623 121.483 19.5753C121.857 19.2988 122.245 19.0001 122.651 18.6835C123.052 18.3766 123.486 18.1149 123.944 17.9031C124.458 17.6669 124.993 17.4788 125.541 17.3412C126.208 17.1832 126.893 17.1083 127.579 17.1182C128.339 17.0987 129.096 17.2243 129.809 17.4883C130.378 17.7141 130.896 18.054 131.329 18.4872C131.716 18.8937 132.019 19.3726 132.221 19.8964C132.418 20.3935 132.52 20.9227 132.524 21.4572V22.0726H129.768C128.166 22.0648 126.566 22.1991 124.988 22.4739C123.604 22.7009 122.266 23.1528 121.028 23.8118C119.934 24.3947 119 25.2368 118.308 26.2644C117.717 27.2821 117.375 28.4252 117.311 29.6002C117.247 30.7752 117.461 31.9488 117.938 33.0249C118.349 33.8715 118.943 34.6163 119.677 35.2055C120.436 35.8008 121.302 36.2458 122.228 36.5166C123.214 36.8054 124.237 36.9466 125.264 36.9358C126.83 36.9703 128.385 36.6661 129.822 36.0439C130.993 35.4739 132.008 34.6275 132.779 33.5778C132.779 34.4207 132.841 35.2679 132.912 36.1063C132.919 36.1856 132.955 36.2594 133.014 36.3131C133.073 36.3668 133.149 36.3965 133.229 36.3962H136.953C136.996 36.3968 137.04 36.388 137.08 36.3703C137.12 36.3526 137.155 36.3264 137.184 36.2936C137.214 36.2608 137.237 36.222 137.251 36.1797C137.265 36.1374 137.27 36.0926 137.265 36.0483C137.202 35.4686 137.158 34.8488 137.126 34.2021C137.095 33.5555 137.068 32.8376 137.068 32.0661ZM132.524 25.7873V26.8664C132.52 27.6012 132.415 28.332 132.212 29.0382C132.007 29.7532 131.661 30.4201 131.195 31.0003C130.696 31.6082 130.067 32.0959 129.354 32.4273C128.473 32.8139 127.519 33.0012 126.558 32.9758C125.406 33.0371 124.262 32.7645 123.262 32.191C122.495 31.687 122.125 30.8531 122.125 29.7071C122.11 29.3546 122.167 29.0029 122.291 28.6727C122.415 28.3425 122.604 28.0407 122.847 27.7851C123.403 27.2289 124.077 26.8051 124.818 26.5454C125.712 26.2321 126.641 26.027 127.583 25.9344C128.591 25.8329 129.603 25.7838 130.616 25.7873H132.524Z" fill="#3A3537"/>
<path d="M157.261 15.2216C156.495 14.5048 155.582 13.9644 154.585 13.6385C153.57 13.3023 152.506 13.1321 151.437 13.1346C149.809 13.103 148.2 13.4932 146.768 14.2673C145.825 14.7727 145.013 15.4902 144.395 16.3632V14.0086C144.396 13.9673 144.388 13.9262 144.373 13.8878C144.357 13.8494 144.335 13.8145 144.305 13.785C144.276 13.7556 144.242 13.7322 144.204 13.7162C144.165 13.7002 144.125 13.692 144.083 13.692H139.891C139.807 13.692 139.727 13.7254 139.667 13.7847C139.608 13.8441 139.575 13.9247 139.575 14.0086V36.0737C139.575 36.1577 139.608 36.2382 139.667 36.2976C139.727 36.357 139.807 36.3903 139.891 36.3903H144.083C144.125 36.3903 144.165 36.3821 144.204 36.3662C144.242 36.3502 144.276 36.3268 144.305 36.2973C144.335 36.2679 144.357 36.2329 144.373 36.1945C144.388 36.1562 144.396 36.1151 144.395 36.0737V24.7156C144.372 23.6299 144.523 22.5475 144.841 21.5093C145.093 20.7003 145.514 19.9539 146.077 19.3198C146.581 18.765 147.211 18.3385 147.914 18.0756C149.227 17.5819 150.668 17.5411 152.008 17.9597C152.563 18.1421 153.07 18.4469 153.492 18.8515C153.956 19.3206 154.313 19.8852 154.536 20.506C154.819 21.3152 154.953 22.1687 154.933 23.0255V36.0737C154.933 36.1577 154.966 36.2382 155.026 36.2976C155.085 36.357 155.166 36.3903 155.249 36.3903H159.441C159.525 36.3903 159.606 36.357 159.665 36.2976C159.725 36.2382 159.758 36.1577 159.758 36.0737V21.875C159.786 20.5399 159.556 19.2119 159.08 17.9641C158.682 16.9277 158.061 15.9915 157.261 15.2216Z" fill="#3A3537"/>
<path d="M178.844 26.9575C178.513 26.2201 178.024 25.5641 177.413 25.0355C176.777 24.4942 176.053 24.0658 175.272 23.7691C174.428 23.4405 173.562 23.1708 172.681 22.9619L171.004 22.6364C170.392 22.5213 169.794 22.3404 169.221 22.0968C168.706 21.885 168.233 21.5829 167.825 21.2049C167.648 21.031 167.51 20.8222 167.419 20.5919C167.327 20.3616 167.285 20.1147 167.294 19.8671C167.285 19.544 167.368 19.2251 167.534 18.9477C167.7 18.6704 167.942 18.4463 168.231 18.3018C168.973 17.8942 169.81 17.6911 170.657 17.7132C171.534 17.6841 172.403 17.8871 173.176 18.3018C173.846 18.6814 174.439 19.1836 174.924 19.7824C174.95 19.8156 174.981 19.8435 175.017 19.8644C175.054 19.8853 175.094 19.8989 175.135 19.9043C175.177 19.9097 175.219 19.9068 175.259 19.8958C175.299 19.8848 175.337 19.866 175.37 19.8403L178.63 17.3163C178.692 17.2684 178.735 17.1993 178.75 17.122C178.765 17.0447 178.751 16.9647 178.71 16.8971C177.916 15.5833 176.72 14.5606 175.299 13.9807C172.906 13.0001 170.254 12.8433 167.762 13.5347C166.756 13.8124 165.806 14.262 164.953 14.8636C164.126 15.4459 163.441 16.2082 162.951 17.0933C162.428 18.0621 162.165 19.1499 162.188 20.2506C162.159 21.2181 162.363 22.1784 162.781 23.0511C163.161 23.7871 163.702 24.4274 164.364 24.924C165.043 25.4248 165.795 25.8175 166.594 26.0879C167.41 26.3689 168.284 26.6231 169.198 26.846C169.644 26.9352 170.193 27.0512 170.795 27.1894C171.366 27.3209 171.924 27.503 172.463 27.7335C172.949 27.941 173.389 28.2443 173.756 28.6253C173.926 28.8023 174.058 29.0124 174.143 29.2426C174.228 29.4728 174.265 29.7181 174.251 29.9632C174.26 30.3401 174.142 30.7092 173.916 31.0111C173.669 31.3387 173.354 31.6094 172.993 31.8049C172.575 32.0337 172.124 32.1962 171.655 32.2865C171.147 32.3885 170.631 32.4408 170.113 32.4426C169.081 32.4703 168.064 32.1993 167.183 31.6622C166.375 31.1531 165.627 30.5547 164.953 29.8784C164.895 29.8261 164.819 29.7971 164.741 29.7971C164.663 29.7971 164.587 29.8261 164.529 29.8784L161.385 32.4783C161.352 32.5036 161.324 32.5354 161.303 32.5717C161.282 32.6081 161.269 32.6483 161.264 32.6899C161.259 32.7315 161.263 32.7737 161.274 32.8139C161.286 32.8542 161.306 32.8917 161.332 32.9242C162.285 34.3246 163.614 35.4269 165.167 36.1038C166.746 36.6948 168.423 36.9778 170.108 36.9377C171.22 36.9379 172.329 36.8107 173.412 36.5586C174.47 36.3221 175.475 35.8977 176.382 35.3055C177.257 34.7173 177.99 33.9419 178.527 33.0357C179.104 32.0157 179.392 30.858 179.361 29.6867C179.385 28.7506 179.208 27.8202 178.844 26.9575Z" fill="#3A3537"/>
<path d="M44.0544 28.0407C44.3086 27.898 45.6553 27.0329 46.9575 26.3016C47.1228 26.2211 47.3041 26.1789 47.488 26.1783C47.6719 26.1776 47.8535 26.2184 48.0194 26.2977C48.1853 26.377 48.3311 26.4928 48.4461 26.6363C48.561 26.7798 48.6421 26.9474 48.6833 27.1266C50.3778 32.2058 55.9566 32.625 58.9399 29.8022L57.4638 28.9103C56.5051 28.344 56.5184 27.4476 57.4995 26.917L64.6791 23.0195C65.6557 22.4888 66.4629 22.9615 66.4629 24.0763V32.1924C66.4629 33.3073 65.687 33.7532 64.7237 33.1913L63.1808 32.2682C59.8674 37.9138 48.9107 39.3453 43.6263 30.3463C43.6575 30.3552 42.5561 28.8836 44.0544 28.0407Z" fill="#EA1B3D"/>
<path d="M47.8315 23.8589C48.0444 22.334 48.7741 20.9283 49.8988 19.8766C51.0234 18.825 52.4749 18.1912 54.0107 18.0811C55.5464 17.9709 57.0735 18.3911 58.3367 19.2715C59.5999 20.1518 60.5228 21.439 60.9511 22.918C60.9643 22.9617 60.9867 23.0023 61.0166 23.0368C61.0466 23.0714 61.0835 23.0993 61.125 23.1186C61.1658 23.1364 61.2098 23.1455 61.2543 23.1454C61.3008 23.1462 61.3468 23.1355 61.3881 23.1142L65.4015 21.1922C65.4721 21.1582 65.5275 21.0993 65.5572 21.0268C65.5868 20.9543 65.5886 20.8734 65.5621 20.7997C64.5803 18.0377 62.6031 15.7414 60.0174 14.3604C57.4317 12.9794 54.4237 12.6132 51.5822 13.3333C48.7407 14.0535 46.2702 15.8082 44.6544 18.254C43.0385 20.6998 42.3936 23.6606 42.8459 26.5568C42.8538 26.6083 42.8742 26.6571 42.9054 26.6988C42.9367 26.7405 42.9777 26.7739 43.0249 26.7959C43.0721 26.818 43.124 26.828 43.176 26.8252C43.228 26.8224 43.2785 26.8068 43.3231 26.7798L47.6799 24.1042C47.7225 24.0779 47.7585 24.0421 47.7848 23.9995C47.8111 23.9569 47.8271 23.9088 47.8315 23.8589Z" fill="#3A3537"/>
</g>
<defs>
<clipPath id="clip0">
<rect width="179.361" height="56.34" fill="white"/>
</clipPath>
</defs>
</svg>
